<mxfile host="app.diagrams.net" agent="Mozilla/5.0 (X11; Linux x86_64; rv:128.0) Gecko/20100101 Firefox/128.0" version="24.7.6">
  <diagram name="Page-1" id="pAAZa4O4RVHz7VyGtO1k">
    <mxGraphModel dx="2712" dy="1096" grid="0" gridSize="10" guides="1" tooltips="1" connect="1" arrows="1" fold="1" page="0" pageScale="1" pageWidth="850" pageHeight="1100" math="0" shadow="0">
      <root>
        <mxCell id="0" />
        <mxCell id="1" parent="0" />
        <mxCell id="OEHbqeWCWHPh5eyWaXjl-3" style="edgeStyle=orthogonalEdgeStyle;rounded=0;orthogonalLoop=1;jettySize=auto;html=1;entryX=0;entryY=0.25;entryDx=0;entryDy=0;exitX=1;exitY=0.25;exitDx=0;exitDy=0;" edge="1" parent="1" source="OEHbqeWCWHPh5eyWaXjl-1" target="OEHbqeWCWHPh5eyWaXjl-2">
          <mxGeometry relative="1" as="geometry" />
        </mxCell>
        <mxCell id="OEHbqeWCWHPh5eyWaXjl-4" value="&lt;div style=&quot;font-size: 16px;&quot;&gt;upload image&lt;/div&gt;&lt;div style=&quot;font-size: 16px;&quot;&gt;delete image&lt;br&gt;&lt;/div&gt;&lt;font style=&quot;font-size: 16px;&quot;&gt;search request&lt;/font&gt;" style="edgeLabel;html=1;align=center;verticalAlign=middle;resizable=0;points=[];" vertex="1" connectable="0" parent="OEHbqeWCWHPh5eyWaXjl-3">
          <mxGeometry x="-0.0496" y="-4" relative="1" as="geometry">
            <mxPoint y="1" as="offset" />
          </mxGeometry>
        </mxCell>
        <mxCell id="OEHbqeWCWHPh5eyWaXjl-1" value="&lt;font style=&quot;font-size: 25px;&quot;&gt;react frontend&lt;br&gt;&lt;/font&gt;" style="rounded=1;whiteSpace=wrap;html=1;" vertex="1" parent="1">
          <mxGeometry x="-404" y="357.5" width="247" height="129" as="geometry" />
        </mxCell>
        <mxCell id="OEHbqeWCWHPh5eyWaXjl-5" style="edgeStyle=orthogonalEdgeStyle;rounded=0;orthogonalLoop=1;jettySize=auto;html=1;exitX=0;exitY=0.75;exitDx=0;exitDy=0;entryX=1;entryY=0.75;entryDx=0;entryDy=0;" edge="1" parent="1" source="OEHbqeWCWHPh5eyWaXjl-2" target="OEHbqeWCWHPh5eyWaXjl-1">
          <mxGeometry relative="1" as="geometry" />
        </mxCell>
        <mxCell id="OEHbqeWCWHPh5eyWaXjl-6" value="&lt;font style=&quot;font-size: 16px;&quot;&gt;search request (image ids)&lt;/font&gt;" style="edgeLabel;html=1;align=center;verticalAlign=middle;resizable=0;points=[];" vertex="1" connectable="0" parent="OEHbqeWCWHPh5eyWaXjl-5">
          <mxGeometry x="0.0237" y="1" relative="1" as="geometry">
            <mxPoint as="offset" />
          </mxGeometry>
        </mxCell>
        <mxCell id="OEHbqeWCWHPh5eyWaXjl-15" style="edgeStyle=orthogonalEdgeStyle;rounded=0;orthogonalLoop=1;jettySize=auto;html=1;exitX=1;exitY=0.25;exitDx=0;exitDy=0;entryX=0;entryY=0.25;entryDx=0;entryDy=0;" edge="1" parent="1" source="OEHbqeWCWHPh5eyWaXjl-2" target="OEHbqeWCWHPh5eyWaXjl-13">
          <mxGeometry relative="1" as="geometry" />
        </mxCell>
        <mxCell id="OEHbqeWCWHPh5eyWaXjl-16" value="&lt;div&gt;evaluate new image&lt;/div&gt;search request" style="edgeLabel;html=1;align=center;verticalAlign=middle;resizable=0;points=[];" vertex="1" connectable="0" parent="OEHbqeWCWHPh5eyWaXjl-15">
          <mxGeometry x="-0.1669" y="1" relative="1" as="geometry">
            <mxPoint x="11" y="1" as="offset" />
          </mxGeometry>
        </mxCell>
        <mxCell id="OEHbqeWCWHPh5eyWaXjl-2" value="&lt;font style=&quot;font-size: 20px;&quot;&gt;nodejs backend&lt;br&gt;&lt;/font&gt;" style="rounded=1;whiteSpace=wrap;html=1;" vertex="1" parent="1">
          <mxGeometry x="125" y="356" width="235" height="132" as="geometry" />
        </mxCell>
        <mxCell id="OEHbqeWCWHPh5eyWaXjl-7" value="" style="strokeColor=#dddddd;shadow=1;strokeWidth=1;rounded=1;absoluteArcSize=1;arcSize=2;" vertex="1" parent="1">
          <mxGeometry x="167" y="127" width="151" height="60" as="geometry" />
        </mxCell>
        <mxCell id="OEHbqeWCWHPh5eyWaXjl-8" value="&lt;font color=&quot;#111211&quot; style=&quot;font-size: 15px;&quot;&gt;Image Storage&lt;/font&gt;" style="sketch=0;dashed=0;connectable=0;html=1;fillColor=#5184F3;strokeColor=none;shape=mxgraph.gcp2.firebase;part=1;labelPosition=right;verticalLabelPosition=middle;align=left;verticalAlign=middle;spacingLeft=5;fontColor=#999999;fontSize=12;" vertex="1" parent="OEHbqeWCWHPh5eyWaXjl-7">
          <mxGeometry width="32.4" height="45" relative="1" as="geometry">
            <mxPoint x="5" y="7" as="offset" />
          </mxGeometry>
        </mxCell>
        <mxCell id="OEHbqeWCWHPh5eyWaXjl-9" style="edgeStyle=orthogonalEdgeStyle;rounded=0;orthogonalLoop=1;jettySize=auto;html=1;entryX=0.815;entryY=0.983;entryDx=0;entryDy=0;entryPerimeter=0;" edge="1" parent="1" target="OEHbqeWCWHPh5eyWaXjl-7">
          <mxGeometry relative="1" as="geometry">
            <mxPoint x="290" y="355" as="sourcePoint" />
          </mxGeometry>
        </mxCell>
        <mxCell id="OEHbqeWCWHPh5eyWaXjl-11" value="upload image" style="edgeLabel;html=1;align=center;verticalAlign=middle;resizable=0;points=[];" vertex="1" connectable="0" parent="OEHbqeWCWHPh5eyWaXjl-9">
          <mxGeometry x="-0.0134" y="-2" relative="1" as="geometry">
            <mxPoint x="2" y="-1" as="offset" />
          </mxGeometry>
        </mxCell>
        <mxCell id="OEHbqeWCWHPh5eyWaXjl-10" style="edgeStyle=orthogonalEdgeStyle;rounded=0;orthogonalLoop=1;jettySize=auto;html=1;exitX=0.25;exitY=1;exitDx=0;exitDy=0;entryX=0.34;entryY=0.008;entryDx=0;entryDy=0;entryPerimeter=0;" edge="1" parent="1" source="OEHbqeWCWHPh5eyWaXjl-7" target="OEHbqeWCWHPh5eyWaXjl-2">
          <mxGeometry relative="1" as="geometry" />
        </mxCell>
        <mxCell id="OEHbqeWCWHPh5eyWaXjl-12" value="&lt;div&gt;retrieve images&lt;/div&gt;" style="edgeLabel;html=1;align=center;verticalAlign=middle;resizable=0;points=[];" vertex="1" connectable="0" parent="OEHbqeWCWHPh5eyWaXjl-10">
          <mxGeometry x="-0.0714" y="1" relative="1" as="geometry">
            <mxPoint as="offset" />
          </mxGeometry>
        </mxCell>
        <mxCell id="OEHbqeWCWHPh5eyWaXjl-17" style="edgeStyle=orthogonalEdgeStyle;rounded=0;orthogonalLoop=1;jettySize=auto;html=1;exitX=0;exitY=0.75;exitDx=0;exitDy=0;entryX=1;entryY=0.75;entryDx=0;entryDy=0;" edge="1" parent="1" source="OEHbqeWCWHPh5eyWaXjl-13" target="OEHbqeWCWHPh5eyWaXjl-2">
          <mxGeometry relative="1" as="geometry" />
        </mxCell>
        <mxCell id="OEHbqeWCWHPh5eyWaXjl-18" value="evalute search request" style="edgeLabel;html=1;align=center;verticalAlign=middle;resizable=0;points=[];" vertex="1" connectable="0" parent="OEHbqeWCWHPh5eyWaXjl-17">
          <mxGeometry x="0.2896" y="1" relative="1" as="geometry">
            <mxPoint x="24" y="-1" as="offset" />
          </mxGeometry>
        </mxCell>
        <mxCell id="OEHbqeWCWHPh5eyWaXjl-13" value="&lt;font style=&quot;font-size: 17px;&quot;&gt;AI agent&lt;br&gt;(Catshire cat ai)&lt;br&gt;&lt;/font&gt;" style="rounded=1;whiteSpace=wrap;html=1;" vertex="1" parent="1">
          <mxGeometry x="536" y="354.75" width="209" height="134.5" as="geometry" />
        </mxCell>
      </root>
    </mxGraphModel>
  </diagram>
</mxfile>
